<?xml version="1.0" encoding="UTF-8"?>
<svg width="110" height="110" viewBox="0 0 110 110" xmlns="http://www.w3.org/2000/svg">
  <rect width="110" height="110" fill="#519DEC"/>
  <rect x="7" y="7" width="96" height="96" fill="#0256B6"/>
  <!-- Main dial -->
  <circle cx="40" cy="45" r="22" fill="none" stroke="white" stroke-width="3"/>
  <path d="M40,25 A20,20 0 0,1 58,55" stroke="#D62598" stroke-width="4" fill="none" stroke-linecap="round"/>
  <circle cx="40" cy="45" r="5" fill="white"/>
  <!-- Vertical bars -->
  <rect x="72" y="25" width="6" height="35" fill="white" opacity="0.3"/>
  <rect x="72" y="40" width="6" height="20" fill="white"/>
  <rect x="82" y="25" width="6" height="35" fill="white" opacity="0.3"/>
  <rect x="82" y="30" width="6" height="30" fill="#D62598"/>
  <rect x="92" y="25" width="6" height="35" fill="white" opacity="0.3"/>
  <rect x="92" y="45" width="6" height="15" fill="white" opacity="0.6"/>
  <!-- Bottom indicators -->
  <rect x="20" y="78" width="70" height="12" fill="white" opacity="0.1"/>
  <circle cx="32" cy="84" r="4" fill="#00B140"/>
  <circle cx="48" cy="84" r="4" fill="#D62598"/>
  <circle cx="64" cy="84" r="4" fill="white"/>
  <circle cx="80" cy="84" r="4" fill="white" opacity="0.3"/>
</svg>
