<?xml version="1.0" encoding="UTF-8"?>
<svg width="110" height="110" viewBox="0 0 110 110" xmlns="http://www.w3.org/2000/svg">
  <!-- Outer frame -->
  <rect width="110" height="110" fill="#6cb4ff"/>
  <!-- Inner panel -->
  <rect x="7" y="7" width="96" height="96" fill="#1a2d48"/>
  <!-- Main dial -->
  <circle cx="40" cy="45" r="22" fill="none" stroke="#6d85a0" stroke-width="3"/>
  <path d="M40,25 A20,20 0 0,1 58,55" stroke="#38a0ff" stroke-width="4" fill="none" stroke-linecap="round"/>
  <circle cx="40" cy="45" r="5" fill="#dce4ec"/>
  <!-- Vertical bars -->
  <rect x="72" y="25" width="6" height="35" fill="#6d85a0" opacity="0.3"/>
  <rect x="72" y="40" width="6" height="20" fill="#dce4ec"/>
  <rect x="82" y="25" width="6" height="35" fill="#6d85a0" opacity="0.3"/>
  <rect x="82" y="30" width="6" height="30" fill="#38a0ff"/>
  <rect x="92" y="25" width="6" height="35" fill="#6d85a0" opacity="0.3"/>
  <rect x="92" y="45" width="6" height="15" fill="#dce4ec" opacity="0.6"/>
  <!-- Bottom indicators -->
  <rect x="20" y="78" width="70" height="12" fill="#dce4ec" opacity="0.06"/>
  <circle cx="32" cy="84" r="4" fill="#18c760"/>
  <circle cx="48" cy="84" r="4" fill="#38a0ff"/>
  <circle cx="64" cy="84" r="4" fill="#dce4ec"/>
  <circle cx="80" cy="84" r="4" fill="#6d85a0" opacity="0.3"/>
</svg>
